<svg width="24" height="24" viewBox="0 0 24 24" fill="none" xmlns="http://www.w3.org/2000/svg">
<path fill-rule="evenodd" clip-rule="evenodd" d="M19.7773 4.4296C20.8652 3.97153 22.0315 4.89146 21.8394 6.05615L19.5705 19.8129C19.3517 21.1393 17.8949 21.9004 16.678 21.2394C15.6597 20.6863 14.1489 19.835 12.7873 18.9453C12.1074 18.501 10.0255 17.0764 10.2814 16.0623C10.5002 15.1952 14.0001 11.9373 16.0001 9.99976C16.7857 9.23869 16.4279 8.79902 15.5001 9.49976C13.1985 11.2381 9.50332 13.881 8.28136 14.6248C7.20323 15.281 6.64031 15.393 5.96886 15.281C4.74273 15.0767 3.60596 14.7603 2.67788 14.3756C1.42351 13.8556 1.48461 12.1318 2.67703 11.6298L19.7773 4.4296Z" fill="#2664eb"/>
</svg>
